<?xml version="1.0" encoding="UTF-8" standalone="no"?>
<svg
   xmlns:dc="http://purl.org/dc/elements/1.1/"
   xmlns:cc="http://creativecommons.org/ns#"
   xmlns:rdf="http://www.w3.org/1999/02/22-rdf-syntax-ns#"
   xmlns:svg="http://www.w3.org/2000/svg"
   xmlns="http://www.w3.org/2000/svg"
   xmlns:xlink="http://www.w3.org/1999/xlink"
   xmlns:sodipodi="http://sodipodi.sourceforge.net/DTD/sodipodi-0.dtd"
   xmlns:inkscape="http://www.inkscape.org/namespaces/inkscape"
   sodipodi:docname="bglayer-1.svg"
   inkscape:version="1.0 (4035a4fb49, 2020-05-01)"
   id="svg1575"
   version="1.1"
   viewBox="0 0 270.93333 203.20001"
   height="768"
   width="1024">
  <defs
     id="defs1569">
    <linearGradient
       id="linearGradient2166"
       inkscape:collect="always">
      <stop
         id="stop2162"
         offset="0"
         style="stop-color:#00000b;stop-opacity:1" />
      <stop
         id="stop2164"
         offset="1"
         style="stop-color:#1c1c40;stop-opacity:1" />
    </linearGradient>
    <linearGradient
       gradientUnits="userSpaceOnUse"
       y2="412.33231"
       x2="234.07771"
       y1="883.19342"
       x1="208.9165"
       id="linearGradient2168"
       xlink:href="#linearGradient2166"
       inkscape:collect="always" />
  </defs>
  <sodipodi:namedview
     units="px"
     inkscape:window-maximized="0"
     inkscape:window-y="0"
     inkscape:window-x="192"
     inkscape:window-height="1030"
     inkscape:window-width="1424"
     showgrid="false"
     inkscape:document-rotation="0"
     inkscape:current-layer="layer1"
     inkscape:document-units="mm"
     inkscape:cy="585.83527"
     inkscape:cx="530.90192"
     inkscape:zoom="0.7"
     inkscape:pageshadow="2"
     inkscape:pageopacity="0.0"
     borderopacity="1.0"
     bordercolor="#666666"
     pagecolor="#ffffff"
     id="base" />
  <metadata
     id="metadata1572">
    <rdf:RDF>
      <cc:Work
         rdf:about="">
        <dc:format>image/svg+xml</dc:format>
        <dc:type
           rdf:resource="http://purl.org/dc/dcmitype/StillImage" />
        <dc:title />
      </cc:Work>
    </rdf:RDF>
  </metadata>
  <g
     id="layer1"
     inkscape:groupmode="layer"
     inkscape:label="Layer 1">
    <path
       id="path2158"
       d="m 0,149.99667 0.56377165,-0.14617 1.85763825,1.21004 5.8940661,-7.42959 14.363095,28.34821 3.779762,-12.85119 3.401785,7.55953 2.267857,-5.29167 6.425597,-6.42559 4.535712,-21.92262 8.693455,-12.85119 3.401784,7.18154 6.80357,-19.65476 6.803573,24.56845 4.535715,-3.0238 1.133927,6.42559 6.425597,7.9375 3.023809,15.49702 4.913691,-7.55952 9.449403,25.32441 4.913692,-6.04762 3.02381,4.53571 12.09524,-12.47321 18.52083,26.45833 6.42559,-9.82738 4.53572,5.29167 18.52083,-8.31548 4.53572,3.77976 7.55952,-12.09524 6.80357,13.22917 6.80357,-9.44941 7.18155,3.77977 9.82738,-7.9375 7.9375,14.74107 7.9375,-24.94643 3.02381,12.47321 10.20536,0.75596 6.42559,-9.44941 9.82738,4.53572 8.31548,-20.78869 8.22805,4.85381 33.23122,86.26959 -336.759602,-3.20723 z"
       style="fill:none;stroke:none;stroke-width:0.264583px;stroke-linecap:butt;stroke-linejoin:miter;stroke-opacity:1" />
    <path
       sodipodi:nodetypes="sssssscssssscsscccssssscssssscssscscsscccccssscccccsssscscscssscsssssscsscssssssscsss"
       transform="scale(0.26458333)"
       id="path2160"
       d="m 706.15405,887.48521 c -195.00994,-1.95337 -460.44674,-4.59562 -589.85954,-5.87165 -129.412809,-1.27604 -235.58587,-2.60993 -235.94013,-2.96419 -1.22058,-1.22059 118.0703927,-312.08698 119.6333896,-311.73218 0.8610924,0.19546 5.5432262,3.72644 7.2946226,4.40912 2.2634569,0.88227 6.1709288,-2.64822 13.5115758,-12.20801 l 10.327222,-13.44923 26.396935,52.76379 c 14.518314,29.0201 27.146769,52.76379 28.06324,52.76379 0.916471,0 4.265732,-9.14319 7.442844,-20.3182 3.177091,-11.17502 6.398953,-20.7029 7.159701,-21.17306 0.76072,-0.47017 3.9302,4.80919 7.04325,11.73191 l 5.6601,12.58676 4.83318,-11.11168 c 2.96245,-6.81081 9.57198,-15.92421 17.07628,-23.54529 l 12.24309,-12.43361 8.51587,-41.14123 8.51589,-41.14124 14.96757,-22.64219 c 8.23216,-12.45321 15.48227,-22.66446 16.11133,-22.69168 0.62906,-0.0272 3.75567,5.41528 6.94801,12.09441 3.19233,6.67914 6.46185,11.45211 7.2656,10.60661 0.80374,-0.84551 6.69311,-16.87071 13.0875,-35.61157 l 11.62613,-34.07428 12.0911,44.17581 c 6.6501,24.29669 12.38912,44.53613 12.75338,44.97653 0.36426,0.4404 4.26333,-1.58231 8.66456,-4.49492 8.91595,-5.9003 8.57632,-6.19033 11.25581,9.61197 0.93865,5.5357 4.99053,12.34408 13.38846,22.49666 l 12.04243,14.55857 5.56364,28.43554 c 3.05999,15.63955 6.13366,29.00557 6.83035,29.70226 0.6967,0.69669 5.21206,-4.61442 10.03414,-11.80247 l 8.76744,-13.06918 17.15213,46.20818 c 9.78377,26.35775 18.23697,46.21677 19.67749,46.22816 1.38896,0.0101 2.55251,-0.66187 2.58567,-1.49525 0.0331,-0.83337 3.48468,-5.47612 7.67002,-10.31719 l 7.60975,-8.80199 5.60398,8.46821 5.60398,8.46819 22.66194,-23.75897 22.66197,-23.75897 34.87473,49.85164 c 19.1811,27.41839 35.16731,49.85163 35.5249,49.85163 0.3576,0 5.99469,-8.1713 12.52688,-18.15844 l 11.87673,-18.15844 8.32194,9.5137 8.32192,9.51371 34.79838,-15.60204 34.79838,-15.60203 5.54645,3.94941 c 3.05054,2.17217 6.71343,5.35557 8.13976,7.07418 1.42634,1.71861 3.18172,3.12477 3.90089,3.12477 0.71915,0 7.19908,-9.53702 14.39983,-21.19339 7.20075,-11.65635 13.60188,-21.20229 14.22474,-21.2132 0.62286,-0.0101 6.53225,10.42051 13.13199,23.1809 6.59973,12.76039 12.45409,23.19054 13.00967,23.17809 0.55558,-0.0121 6.46498,-7.70995 13.13198,-17.10558 6.66701,-9.39563 12.95745,-17.09837 13.97878,-17.11718 1.02132,-0.0182 6.68967,2.69319 12.5963,6.0267 5.90664,3.3335 11.54848,6.06091 12.5374,6.06091 0.98894,0 9.79341,-6.39604 19.56551,-14.21343 l 17.76743,-14.21345 13.44775,25.37679 c 7.39626,13.95721 14.43723,26.36625 15.64658,27.5756 1.58491,1.58491 5.91388,-9.3633 15.50469,-39.2122 7.31821,-22.77607 13.30585,-42.4261 13.30585,-43.66675 0,-1.24064 0.75887,-2.25571 1.68635,-2.25571 0.9275,0 3.71621,9.09137 6.19716,20.20305 l 4.5108,20.20305 h 8.65878 c 4.76233,0 14.06012,0.56455 20.66179,1.25457 l 12.00301,1.25455 10.8136,-16.47111 c 5.94748,-9.0591 11.53239,-16.91536 12.41094,-17.45832 0.87853,-0.54296 9.50887,2.66793 19.17854,7.13533 9.66964,4.4674 17.81197,8.12254 18.09407,8.12254 0.28209,0 7.10895,-16.59176 15.17079,-36.87057 8.06187,-20.27881 15.38253,-37.68518 16.26815,-38.68082 0.90873,-1.02162 7.66941,1.78947 15.51891,6.45273 l 15.207,7.04192 59.5825,159.4232 c 32.6392,87.33174 61.4645,159.79312 62.1779,161.73767 1.5497,4.22389 47.4069,4.28567 -439.56165,-0.59222 z"
       style="fill:url(#linearGradient2168);stroke-width:6.60497;fill-opacity:1" />
  </g>
</svg>
