<?xml version="1.0" encoding="UTF-8" standalone="no"?>
<svg
   xmlns:dc="http://purl.org/dc/elements/1.1/"
   xmlns:cc="http://creativecommons.org/ns#"
   xmlns:rdf="http://www.w3.org/1999/02/22-rdf-syntax-ns#"
   xmlns:svg="http://www.w3.org/2000/svg"
   xmlns="http://www.w3.org/2000/svg"
   xmlns:sodipodi="http://sodipodi.sourceforge.net/DTD/sodipodi-0.dtd"
   xmlns:inkscape="http://www.inkscape.org/namespaces/inkscape"
   width="1024"
   height="768"
   version="1.1"
   viewBox="0 0 270.93 203.2"
   id="svg857"
   sodipodi:docname="bglayer-2.svg"
   inkscape:version="1.0 (4035a4fb49, 2020-05-01)">
  <sodipodi:namedview
     inkscape:document-rotation="0"
     pagecolor="#ffffff"
     bordercolor="#666666"
     borderopacity="1"
     objecttolerance="10"
     gridtolerance="10"
     guidetolerance="10"
     inkscape:pageopacity="0"
     inkscape:pageshadow="2"
     inkscape:window-width="1920"
     inkscape:window-height="1001"
     id="namedview859"
     showgrid="false"
     inkscape:zoom="1.0807292"
     inkscape:cx="512"
     inkscape:cy="606.07229"
     inkscape:window-x="-9"
     inkscape:window-y="-9"
     inkscape:window-maximized="1"
     inkscape:current-layer="svg857" />
  <defs
     id="defs849">
    <linearGradient
       id="linearGradient2168"
       x1="208.92"
       x2="234.08"
       y1="883.19"
       y2="412.33"
       gradientTransform="matrix(-.26458 0 0 .1966 270.9 53.706)"
       gradientUnits="userSpaceOnUse">
      <stop
         style="stop-color:#0b0d16;stop-opacity:1"
         stop-color="#0b0d0e"
         offset="0"
         id="stop844" />
      <stop
         stop-color="#353540"
         offset="1"
         id="stop846"
         style="stop-color:#1f1f46;stop-opacity:1" />
    </linearGradient>
  </defs>
  <metadata
     id="metadata851">
    <rdf:RDF>
      <cc:Work
         rdf:about="">
        <dc:format>image/svg+xml</dc:format>
        <dc:type
           rdf:resource="http://purl.org/dc/dcmitype/StillImage" />
        <dc:title />
      </cc:Work>
    </rdf:RDF>
  </metadata>
  <path
     d="m0 150 0.56377-0.14617 1.8576 1.21 5.8941-7.4296 14.363 28.348 3.7798-12.851 3.4018 7.5595 2.2679-5.2917 6.4256-6.4256 4.5357-21.923 8.6935-12.851 3.4018 7.1815 6.8036-19.655 6.8036 24.568 4.5357-3.0238 1.1339 6.4256 6.4256 7.9375 3.0238 15.497 4.9137-7.5595 9.4494 25.324 4.9137-6.0476 3.0238 4.5357 12.095-12.473 18.521 26.458 6.4256-9.8274 4.5357 5.2917 18.521-8.3155 4.5357 3.7798 7.5595-12.095 6.8036 13.229 6.8036-9.4494 7.1816 3.7798 9.8274-7.9375 7.9375 14.741 7.9375-24.946 3.0238 12.473 10.205 0.75596 6.4256-9.4494 9.8274 4.5357 8.3155-20.789 8.228 4.8538 33.231 86.27-336.76-3.2072z"
     fill="none"
     id="path853" />
  <path
     d="m84.059 228.19c51.596-0.38404 121.83-0.9035 156.07-1.1544 34.24-0.25087 62.332-0.51311 62.426-0.58276 0.32295-0.23997-31.239-61.357-31.653-61.287-0.22783 0.0384-1.4666 0.73262-1.93 0.86684-0.59888 0.17345-1.6327-0.52065-3.5749-2.4001l-2.7324-2.6441-6.9842 10.373c-3.8413 5.7054-7.1826 10.373-7.4251 10.373-0.24248 0-1.1286-1.7976-1.9692-3.9946-0.8406-2.197-1.693-4.0702-1.8943-4.1626-0.20127-0.0924-1.0399 0.94549-1.8635 2.3065l-1.4976 2.4746-1.2788-2.1846c-0.78381-1.339-2.5326-3.1307-4.5181-4.629l-3.2393-2.4445-4.5063-16.177-3.9602-4.4515c-2.1781-2.4483-4.0964-4.4559-4.2628-4.4612-0.16644-5e-3 -0.99369 1.0646-1.8383 2.3778s-1.7097 2.2515-1.9224 2.0853c-0.21265-0.16624-1.7709-3.3168-3.4627-7.0013l-3.0761-6.6991-3.1991 8.685c-1.7595 4.7768-3.278 8.7559-3.3743 8.8425-0.0964 0.0866-1.128-0.31108-2.2925-0.88371-2.359-1.16-2.2692-1.217-2.9781 1.8897-0.24835 1.0883-1.3204 2.4269-3.5424 4.4229l-3.1862 2.8622-1.472 5.5905c-0.80962 3.0748-1.6229 5.7026-1.8072 5.8395s-1.379-0.9072-2.6549-2.3204l-2.3197-2.5694-4.5382 9.0846c-2.5886 5.182-4.8252 9.0863-5.2063 9.0885-0.36749 2e-3 -0.67535-0.13013-0.68412-0.29397-9e-3 -0.16384-0.92199-1.0766-2.0294-2.0284l-2.0134-1.7305-2.9654 3.3297-11.992-9.3421-9.2273 9.8009c-5.075 5.3905-9.3047 9.8009-9.3993 9.8009-0.0946 0-1.5861-1.6065-3.3144-3.57l-3.1424-3.57-4.4037 3.7408-18.414-6.1348-1.4675 0.77646c-0.80712 0.42705-1.7763 1.0529-2.1536 1.3908-0.37739 0.33788-0.84183 0.61434-1.0321 0.61434-0.19027 0-1.9047-1.875-3.8099-4.1667-1.9052-2.2917-3.5988-4.1684-3.7636-4.1706-0.1648-2e-3 -1.7283 2.0487-3.4745 4.5574-1.7462 2.5087-3.2951 4.5593-3.4421 4.5568-0.147-2e-3 -1.7105-1.5158-3.4745-3.363-1.764-1.8472-3.4283-3.3616-3.6986-3.3653-0.27022-4e-3 -1.77 0.52949-3.3328 1.1849-1.5628 0.65538-3.0555 1.1916-3.3172 1.1916-0.26166 0-2.5912-1.2575-5.1767-2.7944l-4.701-2.7944-3.558 4.9891c-1.9569 2.744-3.8199 5.1836-4.1398 5.4214-0.41934 0.31159-1.5647-1.8408-4.1023-7.7092-1.9363-4.4778-3.5205-8.341-3.5205-8.585 0-0.24392-0.20078-0.44349-0.44618-0.44349-0.2454 0-0.98325 1.7874-1.6397 3.972l-1.1935 3.972h-2.291c-1.26 0-3.7201 0.11099-5.4668 0.24665l-3.1758 0.24665-2.8611-3.2382c-1.5736-1.781-3.0513-3.3256-3.2837-3.4323-0.23244-0.10675-2.5159 0.52452-5.0743 1.4028-2.5584 0.8783-4.7128 1.5969-4.7874 1.5969-0.07464 0-1.8809-3.262-4.0139-7.2488-2.133-3.9868-4.07-7.409-4.3043-7.6047-0.24043-0.20085-2.0292 0.35182-4.106 1.2686l-4.0235 1.3844-15.765 31.343c-8.6358 17.17-16.262 31.416-16.451 31.798-0.41002 0.83042-12.543 0.84257 116.3-0.11643z"
     fill="url(#linearGradient2168)"
     id="path855" />
</svg>
