<?xml version="1.0" encoding="UTF-8" standalone="no"?>
<svg
   xmlns:dc="http://purl.org/dc/elements/1.1/"
   xmlns:cc="http://creativecommons.org/ns#"
   xmlns:rdf="http://www.w3.org/1999/02/22-rdf-syntax-ns#"
   xmlns:svg="http://www.w3.org/2000/svg"
   xmlns="http://www.w3.org/2000/svg"
   xmlns:sodipodi="http://sodipodi.sourceforge.net/DTD/sodipodi-0.dtd"
   xmlns:inkscape="http://www.inkscape.org/namespaces/inkscape"
   sodipodi:docname="logo_bg.svg"
   inkscape:version="1.0 (4035a4fb49, 2020-05-01)"
   id="svg2176"
   version="1.1"
   viewBox="0 0 180 180"
   height="180mm"
   width="180mm">
  <defs
     id="defs2170" />
  <sodipodi:namedview
     inkscape:window-maximized="1"
     inkscape:window-y="-9"
     inkscape:window-x="-9"
     inkscape:window-height="1001"
     inkscape:window-width="1920"
     showgrid="false"
     inkscape:document-rotation="0"
     inkscape:current-layer="g848"
     inkscape:document-units="mm"
     inkscape:cy="321.69571"
     inkscape:cx="396.41779"
     inkscape:zoom="0.98994949"
     inkscape:pageshadow="2"
     inkscape:pageopacity="0.0"
     borderopacity="1.0"
     bordercolor="#666666"
     pagecolor="#ffffff"
     id="base" />
  <metadata
     id="metadata2173">
    <rdf:RDF>
      <cc:Work
         rdf:about="">
        <dc:format>image/svg+xml</dc:format>
        <dc:type
           rdf:resource="http://purl.org/dc/dcmitype/StillImage" />
        <dc:title></dc:title>
      </cc:Work>
    </rdf:RDF>
  </metadata>
  <g
     id="layer1"
     inkscape:groupmode="layer"
     inkscape:label="Layer 1" />
  <g
     inkscape:label="Layer 2"
     id="layer2"
     inkscape:groupmode="layer">
    <g
       id="g848"
       transform="translate(-13.630746,-55.057523)">
      <rect
         ry="26.640791"
         y="57.462948"
         x="15.501633"
         height="175.32881"
         width="176.39789"
         id="rect855"
         style="fill:#000000;stroke-width:1.265" />
      <path
         style="fill:#ffffff;fill-opacity:1;stroke:#000000;stroke-width:1.265;stroke-linecap:butt;stroke-linejoin:miter;stroke-miterlimit:4;stroke-dasharray:none;stroke-opacity:1"
         d="m 45.302185,224.00527 c -5.948212,0 -7.951269,-2.93379 -7.951269,-7.08264 V 76.906807 c 0,-2.794664 3.014877,-6.013566 7.283096,-6.013566 3.33455,0 5.175859,0.966367 6.949006,2.739514 l 36.415474,42.696305 c 3.469153,-11.09611 9.393103,-20.778862 15.768898,-30.201455 12.73899,17.489315 23.28127,37.143025 19.10977,71.294145 l 31.33736,36.88319 V 77.04044 c 0,-3.404058 3.11239,-6.080382 7.95126,-6.080382 6.86355,0 8.55263,4.455666 8.55263,6.280836 l -0.0668,139.247416 c -0.0603,5.81607 -3.40203,7.55037 -7.95127,7.55037 -2.89436,0 -4.47647,-0.80151 -6.41447,-2.73951 l -20.71338,-23.85381 0.0668,11.75986 h -14.29891 l -6.8822,-11.89349 -3.80859,8.4858 H 98.689273 l -5.011304,-9.15398 -6.347653,11.8935 H 72.830946 V 175.79653 L 87.397134,164.9053 c -2.465757,-7.09834 -4.551783,-14.92901 -3.541321,-28.73148 L 53.921628,100.96106 v 116.79679 c 0.01936,2.25506 -1.28599,6.24742 -8.619443,6.24742 z"
         id="path2760"
         sodipodi:nodetypes="cccccccccccccccccccccccccccccc" />
      <ellipse
         style="fill:#222243;stroke-width:0.71293"
         id="path2762"
         ry="3.6143978"
         rx="3.5671501"
         cy="119.51134"
         cx="103.96708" />
      <ellipse
         cx="103.8962"
         cy="133.94531"
         rx="3.5671501"
         ry="3.6143978"
         id="path2762-9"
         style="fill:#222243;stroke-width:0.71293" />
      <ellipse
         cx="104.03794"
         cy="149.06436"
         rx="3.5671501"
         ry="3.6143978"
         id="path2762-97"
         style="fill:#222243;stroke-width:0.71293" />
      <path
         transform="matrix(0.26458333,0,0,0.26458333,13.630746,55.057523)"
         id="path847"
         d="M 110.69287,634.83273 C 104.00795,633.41875 98.219946,629.54605 95.381474,624.588 L 92.866949,620.19579 92.590458,350.99014 C 92.282281,50.93466 91.66147,76.803884 99.336808,69.869677 c 5.865042,-5.298714 11.703742,-7.120839 21.078562,-6.578139 14.63081,0.846964 9.60646,-4.181091 89.84201,89.908292 39.25023,46.02735 71.68113,83.33549 72.06867,82.90696 0.38754,-0.42851 1.72561,-3.9611 2.97349,-7.85019 5.96157,-18.57951 18.98853,-46.45677 31.93396,-68.33756 9.26068,-15.65271 22.65228,-36.21322 23.58664,-36.21322 2.06124,0 26.30191,37.92255 36.15945,56.56854 30.30323,57.31994 41.92644,123.77262 34.18862,195.46452 l -1.30833,12.12183 4.70157,5.55584 c 2.58587,3.05571 30.35843,35.76458 61.7168,72.68638 l 57.01521,67.13056 0.50508,-227.23974 c 0.50393,-226.723948 0.50977,-227.247714 2.57335,-230.760456 4.96584,-8.453101 15.56789,-12.844721 28.73479,-11.902634 11.07525,0.792431 19.42759,5.484327 23.3384,13.110281 1.87499,3.656162 1.922,10.305495 1.922,271.856579 0,234.04089 -0.18984,268.64678 -1.49397,272.34308 -2.24863,6.37329 -5.03488,9.675 -10.35965,12.27621 -6.79098,3.31746 -22.03704,3.43232 -28.04741,0.21131 -5.63441,-3.01953 -9.48011,-7.18392 -52.52151,-56.87396 -20.93419,-24.1679 -38.47735,-44.09316 -38.9848,-44.27835 -0.54021,-0.19715 -0.92264,9.5452 -0.92264,23.50369 v 23.84041 l -24.81831,-0.27019 -24.8183,-0.27018 -13.1491,-22.72843 c -7.23202,-12.50064 -13.50225,-23.09785 -13.93386,-23.54936 -0.43159,-0.45149 -4.37006,7.16786 -8.75214,16.93193 l -7.96741,17.75283 -20.68164,-0.26439 -20.68164,-0.26441 -10.1155,-18.43529 c -5.56352,-10.1394 -10.34841,-18.43243 -10.63308,-18.42896 -0.28468,0.003 -6.1997,10.683 -13.1445,23.73226 l -12.62691,23.72594 -25.00127,0.006 -25.00128,0.007 0.0638,-59.85154 0.0639,-59.85154 25.10996,-18.58609 c 13.81049,-10.22235 26.28188,-19.541 27.71422,-20.70812 l 2.60424,-2.12204 -3.07722,-9.49289 c -9.00001,-27.76414 -11.38091,-43.64551 -11.48625,-76.6171 l -0.0815,-25.50083 -57.8847,-68.1115 c -31.83658,-37.46133 -58.54249,-68.65742 -59.34646,-69.32466 -1.27485,-1.05802 -1.46176,27.81414 -1.46176,225.78966 0,208.34115 -0.13626,227.28994 -1.65739,230.49549 -2.01277,4.2416 -6.55825,7.85242 -12.55412,9.97269 -5.5175,1.95112 -18.12121,2.72587 -24.02604,1.47689 z M 350.99939,365.6005 c 5.87361,-5.62728 6.12082,-14.24294 0.57715,-20.11501 -6.15323,-6.51774 -16.39239,-5.39187 -21.56295,2.37103 -4.10123,6.15745 -2.08219,15.52016 4.19897,19.47155 4.68569,2.94771 12.77592,2.11512 16.78683,-1.72757 z m -2.26308,-55.65115 c 5.95693,-3.83785 8.02491,-13.13446 4.28581,-19.26678 -2.84014,-4.65801 -7.35457,-6.69329 -13.53004,-6.09991 -10.11472,0.9719 -15.11652,11.53523 -10.07739,21.28253 3.06359,5.92595 13.15273,8.05856 19.32162,4.08416 z m -1.35524,-53.8921 c 5.09393,-2.46593 7.62164,-6.54757 7.61669,-12.29914 -0.007,-8.14121 -5.79478,-13.99041 -13.83566,-13.9825 -14.82597,0.0145 -18.57061,20.75563 -4.84839,26.85452 4.17624,1.85614 6.27399,1.74756 11.06736,-0.57288 z"
         style="fill:#ffffff;stroke-width:4.82964" />
      <path
         transform="matrix(0.26458333,0,0,0.26458333,13.630746,55.057523)"
         id="path851"
         d="M 110.69287,634.7672 C 104.08456,633.4679 98.241199,629.58317 95.381474,624.588 L 92.866949,620.19579 92.590458,350.99014 C 92.282281,50.93466 91.66147,76.803884 99.336808,69.869677 c 5.865042,-5.298714 11.703742,-7.120839 21.078562,-6.578139 14.54964,0.842266 10.51248,-3.127651 81.84349,80.480292 69.20077,81.11105 77.97345,91.22806 79.55511,91.74635 0.58227,0.19079 2.10907,-2.95599 3.39291,-6.99288 5.90589,-18.57033 18.77278,-46.17204 31.91071,-68.45399 9.2354,-15.66326 22.77112,-36.36549 23.77681,-36.36549 1.98795,0 25.86488,37.27258 35.77621,55.84769 30.36728,56.91223 42.24856,124.48513 34.4951,196.18537 -1.29186,11.94654 -1.27885,12.15834 0.89947,14.64721 1.21566,1.38896 28.98934,34.09031 61.71928,72.66969 l 59.509,70.14429 0.50508,-227.22302 c 0.50392,-226.707118 0.50977,-227.231016 2.57335,-230.743756 4.96584,-8.453101 15.56789,-12.844721 28.73479,-11.902634 11.08354,0.793024 19.42737,5.483835 23.34579,13.124751 1.88681,3.679295 1.92364,9.720516 1.66946,273.830629 l -0.25993,270.06833 -3.03947,4.91616 c -4.66616,7.54723 -10.39647,10.08513 -22.69246,10.05027 -11.61568,-0.0329 -14.93607,-1.48832 -23.37969,-10.2478 -3.12128,-3.23805 -22.61344,-25.43381 -43.31591,-49.32392 -20.70247,-23.89011 -38.03606,-43.58808 -38.51911,-43.77327 -0.48304,-0.1852 -0.87826,10.39146 -0.87826,23.50369 v 23.84041 l -24.85717,-0.27019 -24.85717,-0.27018 -13.27609,-22.97152 c -7.30185,-12.63433 -13.73066,-22.82946 -14.28624,-22.65585 -0.55559,0.1736 -4.40895,7.90593 -8.56304,17.18293 l -7.55287,16.86728 -20.70491,-0.27234 -20.70491,-0.27233 -10.1155,-18.43529 c -5.56352,-10.1394 -10.34841,-18.43243 -10.63308,-18.42896 -0.28468,0.003 -6.1997,10.683 -13.1445,23.73226 l -12.62691,23.72594 -25.00127,0.006 -25.00128,0.007 0.0266,-59.85154 0.0266,-59.85154 27.75265,-20.56319 c 15.2639,-11.30976 27.7526,-20.65678 27.7526,-20.77117 0,-0.11439 -1.3554,-4.21781 -3.01201,-9.1187 -8.64647,-25.57965 -11.44896,-44.27713 -11.55373,-77.08361 l -0.0815,-25.51125 -58.52875,-68.81911 c -47.46247,-55.80719 -58.66993,-68.45961 -59.27546,-66.9177 -0.41069,1.04577 -0.77867,103.05002 -0.81772,226.67611 -0.0682,215.97082 -0.14356,224.91257 -1.92376,228.29448 -4.85215,9.2178 -20.87263,14.07004 -36.38478,11.02011 z M 347.73048,367.76108 c 6.24118,-3.22744 8.98352,-9.40119 7.16907,-16.13955 -3.98313,-14.79221 -24.80807,-13.16895 -26.85518,2.09332 -1.45981,10.88373 9.99568,19.05734 19.68611,14.04623 z m 1.00583,-57.83617 c 3.31859,-2.10313 6.25705,-7.3792 6.26145,-11.24261 0.0158,-13.87973 -16.57217,-19.60907 -25.16084,-8.69034 -2.56384,3.25938 -2.86023,11.15945 -0.58382,15.56154 3.2655,6.31477 12.97809,8.49398 19.48321,4.37141 z m -2.494,-53.24668 c 5.41174,-2.26117 8.75986,-7.07534 8.75545,-12.58923 -0.007,-8.48769 -5.64584,-14.32145 -13.83566,-14.31339 -14.49386,0.0142 -18.49412,19.89895 -5.33333,26.51116 4.23618,2.12832 6.08987,2.198 10.41354,0.39146 z"
         style="fill:#ffffff;stroke-width:4.82964" />
      <path
         transform="matrix(0.26458333,0,0,0.26458333,13.630746,55.057523)"
         id="path853"
         d="m 109.48453,634.47735 c -6.75132,-1.82084 -11.323942,-5.0369 -14.130676,-9.9385 L 92.866949,620.19579 92.590458,350.99014 C 92.282281,50.93466 91.66147,76.803884 99.336808,69.869677 c 5.865042,-5.298714 11.703742,-7.120839 21.078562,-6.578139 14.53241,0.841268 10.80895,-2.79741 79.33127,77.524872 73.98944,86.73085 81.3913,95.21126 82.50275,94.52434 0.48064,-0.29705 1.88108,-3.6035 3.11207,-7.34765 7.01673,-21.34191 19.32044,-47.32456 34.07674,-71.9624 8.03307,-13.41243 20.61477,-32.32488 21.50445,-32.32488 1.25259,0 22.81188,32.78369 30.8102,46.85092 34.23504,60.2116 47.40795,128.67907 39.46907,205.14442 l -1.25461,12.08412 8.12499,9.65627 c 4.46874,5.31096 32.21713,38.02217 61.66308,72.6916 l 53.53808,63.03532 0.50508,-227.20721 c 0.50392,-226.691206 0.50977,-227.215229 2.57335,-230.727966 4.96584,-8.453101 15.56789,-12.844721 28.73479,-11.902634 11.08354,0.793024 19.42737,5.483835 23.34579,13.124751 1.88681,3.679295 1.92364,9.720516 1.66946,273.830629 l -0.25993,270.06833 -3.03947,4.91616 c -4.66488,7.54515 -10.39587,10.0842 -22.69246,10.05362 -10.60274,-0.0264 -13.93679,-1.17207 -20.10157,-6.90769 -1.8739,-1.74345 -21.23418,-23.62549 -43.02286,-48.62677 -21.78867,-25.00127 -40.37014,-46.08073 -41.29216,-46.84324 -1.55357,-1.28481 -1.67638,0.36313 -1.67638,22.49353 v 23.87993 l -24.84133,-0.27019 -24.84133,-0.27018 -12.60629,-21.71828 c -6.93347,-11.94506 -13.23505,-22.36319 -14.00353,-23.15141 -1.45214,-1.48945 -3.62548,2.57647 -13.60055,25.44416 l -3.42361,7.84859 -20.75753,-0.27244 -20.75752,-0.27245 -10.11337,-18.4257 c -5.56235,-10.13413 -10.34065,-18.42111 -10.61844,-18.41551 -0.27779,0.006 -6.18718,10.68135 -13.13198,23.72388 l -12.62691,23.7137 -25.00127,0.005 -25.00128,0.005 0.0403,-59.85154 0.0403,-59.85154 27.75186,-20.70333 c 15.26353,-11.38682 27.57582,-21.1621 27.36065,-21.72281 -1.89635,-4.94182 -7.23619,-22.81292 -8.75317,-29.29469 -4.26152,-18.20863 -5.36328,-29.48636 -5.44737,-55.76015 l -0.0814,-25.45558 -13.11219,-15.45559 C 202.11369,227.40716 159.8259,177.91918 155.52931,173.33396 l -5.08367,-5.42516 -0.63954,6.43532 c -0.35175,3.53942 -0.69267,105.31109 -0.75761,226.15925 -0.1134,211.02177 -0.19145,219.86334 -1.97084,223.24372 -4.98553,9.4712 -23.09542,14.64032 -37.59312,10.73026 z M 348.6332,367.19703 c 4.51608,-2.75363 6.70505,-6.54121 6.70505,-11.60174 0,-15.56766 -21.04974,-19.76994 -26.53339,-5.297 -1.57156,4.1478 -1.32923,7.34985 0.88464,11.6894 3.4283,6.72004 12.41369,9.19093 18.9437,5.20934 z m 0.0408,-57.2313 c 8.12148,-5.1421 8.03115,-18.74734 -0.15761,-23.74083 -6.34665,-3.87018 -16.24366,-1.23228 -19.49669,5.19656 -1.96505,3.88346 -1.58057,10.88153 0.8104,14.7502 1.15648,1.87122 2.17926,3.40907 2.27284,3.41744 0.0935,0.008 1.98843,0.67552 4.21076,1.48258 4.34454,1.57775 8.74329,1.18417 12.3603,-1.10595 z m -3.71657,-52.91902 c 11.33799,-3.14971 13.67438,-19.20252 3.6816,-25.29546 -6.7743,-4.13054 -16.57262,-1.31731 -19.45719,5.5864 -4.02797,9.6403 1.24191,18.94844 11.67755,20.626 0.27779,0.0446 2.12191,-0.36797 4.09804,-0.91694 z"
         style="fill:#ffffff;stroke-width:4.82964" />
    </g>
    <path
       transform="scale(0.26458333)"
       id="path2756"
       d=""
       style="fill:#222243;stroke-width:3.30248" />
  </g>
</svg>
